<mxfile host="app.diagrams.net" modified="2023-08-25T10:44:18.500Z" agent="Mozilla/5.0 (Macintosh; Intel Mac OS X 10.15; rv:109.0) Gecko/20100101 Firefox/116.0" etag="LCtlzHuwjqV-mu_WNNLb" version="21.6.9" type="github">
  <diagram name="Page-1" id="2YBvvXClWsGukQMizWep">
    <mxGraphModel dx="2044" dy="1864" grid="1" gridSize="10" guides="1" tooltips="1" connect="1" arrows="1" fold="1" page="1" pageScale="1" pageWidth="850" pageHeight="1100" math="0" shadow="0">
      <root>
        <mxCell id="0" />
        <mxCell id="1" parent="0" />
        <mxCell id="WEFvCsSaVA6V6na2K4AB-4" value="" style="edgeStyle=orthogonalEdgeStyle;rounded=0;orthogonalLoop=1;jettySize=auto;html=1;" edge="1" parent="1" source="WEFvCsSaVA6V6na2K4AB-2" target="WEFvCsSaVA6V6na2K4AB-3">
          <mxGeometry relative="1" as="geometry" />
        </mxCell>
        <mxCell id="WEFvCsSaVA6V6na2K4AB-13" style="edgeStyle=orthogonalEdgeStyle;rounded=0;orthogonalLoop=1;jettySize=auto;html=1;" edge="1" parent="1" source="WEFvCsSaVA6V6na2K4AB-2" target="WEFvCsSaVA6V6na2K4AB-14">
          <mxGeometry relative="1" as="geometry">
            <mxPoint x="129.5" y="460" as="targetPoint" />
          </mxGeometry>
        </mxCell>
        <mxCell id="WEFvCsSaVA6V6na2K4AB-21" style="edgeStyle=orthogonalEdgeStyle;rounded=0;orthogonalLoop=1;jettySize=auto;html=1;" edge="1" parent="1" source="WEFvCsSaVA6V6na2K4AB-2">
          <mxGeometry relative="1" as="geometry">
            <mxPoint x="90" y="160" as="targetPoint" />
          </mxGeometry>
        </mxCell>
        <mxCell id="WEFvCsSaVA6V6na2K4AB-25" style="edgeStyle=orthogonalEdgeStyle;rounded=0;orthogonalLoop=1;jettySize=auto;html=1;exitX=0;exitY=0.5;exitDx=0;exitDy=0;" edge="1" parent="1" source="WEFvCsSaVA6V6na2K4AB-2" target="WEFvCsSaVA6V6na2K4AB-26">
          <mxGeometry relative="1" as="geometry">
            <mxPoint x="-90" y="435" as="targetPoint" />
          </mxGeometry>
        </mxCell>
        <mxCell id="WEFvCsSaVA6V6na2K4AB-2" value="&lt;div align=&quot;left&quot;&gt;Farm&lt;/div&gt;&lt;ul&gt;&lt;li align=&quot;left&quot;&gt;userid&lt;/li&gt;&lt;li align=&quot;left&quot;&gt;farm name&lt;/li&gt;&lt;li align=&quot;left&quot;&gt;size&lt;/li&gt;&lt;li align=&quot;left&quot;&gt;location&lt;/li&gt;&lt;li align=&quot;left&quot;&gt;Income generated&lt;/li&gt;&lt;li align=&quot;left&quot;&gt;inSeason&lt;/li&gt;&lt;li align=&quot;left&quot;&gt;isApproved&lt;/li&gt;&lt;li align=&quot;left&quot;&gt;isDeleted&lt;/li&gt;&lt;li align=&quot;left&quot;&gt;rating&lt;/li&gt;&lt;li align=&quot;left&quot;&gt;Seasons&lt;/li&gt;&lt;li align=&quot;left&quot;&gt;weight in produce&lt;/li&gt;&lt;li align=&quot;left&quot;&gt;season id&lt;br&gt;&lt;/li&gt;&lt;/ul&gt;&lt;div align=&quot;left&quot;&gt;&lt;br&gt;&lt;/div&gt;&lt;div&gt;&lt;br&gt;&lt;/div&gt;&lt;div&gt;&lt;br&gt;&lt;/div&gt;" style="whiteSpace=wrap;html=1;aspect=fixed;" vertex="1" parent="1">
          <mxGeometry x="30" y="310" width="249.25" height="249.25" as="geometry" />
        </mxCell>
        <mxCell id="WEFvCsSaVA6V6na2K4AB-8" style="edgeStyle=orthogonalEdgeStyle;rounded=0;orthogonalLoop=1;jettySize=auto;html=1;" edge="1" parent="1" source="WEFvCsSaVA6V6na2K4AB-3">
          <mxGeometry relative="1" as="geometry">
            <mxPoint x="487" y="570" as="targetPoint" />
          </mxGeometry>
        </mxCell>
        <mxCell id="WEFvCsSaVA6V6na2K4AB-3" value="&lt;div&gt;season&lt;/div&gt;&lt;div&gt;&lt;ol&gt;&lt;li&gt;farmid&lt;/li&gt;&lt;li&gt;isActive&lt;/li&gt;&lt;li&gt;trackingid&lt;/li&gt;&lt;li&gt;procuce&lt;/li&gt;&lt;li&gt;start date&lt;/li&gt;&lt;li&gt;due date&lt;/li&gt;&lt;li&gt;crop type&lt;/li&gt;&lt;li&gt;expected weight&lt;/li&gt;&lt;li&gt;expences&lt;/li&gt;&lt;li&gt;income&lt;/li&gt;&lt;li&gt;total weight&lt;/li&gt;&lt;li&gt;quality&lt;br&gt;&lt;/li&gt;&lt;/ol&gt;&lt;/div&gt;" style="whiteSpace=wrap;html=1;" vertex="1" parent="1">
          <mxGeometry x="400" y="190" width="174" height="234" as="geometry" />
        </mxCell>
        <mxCell id="WEFvCsSaVA6V6na2K4AB-28" style="edgeStyle=orthogonalEdgeStyle;rounded=0;orthogonalLoop=1;jettySize=auto;html=1;entryX=1.01;entryY=0.764;entryDx=0;entryDy=0;entryPerimeter=0;" edge="1" parent="1" source="WEFvCsSaVA6V6na2K4AB-9" target="WEFvCsSaVA6V6na2K4AB-26">
          <mxGeometry relative="1" as="geometry" />
        </mxCell>
        <mxCell id="WEFvCsSaVA6V6na2K4AB-9" value="&lt;div align=&quot;left&quot;&gt;Tracking&lt;/div&gt;&lt;div align=&quot;left&quot;&gt;&lt;ul&gt;&lt;li&gt;trackingid&lt;/li&gt;&lt;li&gt;stage{ {type:&quot;&quot;,isActive:&quot;&quot;,date:&quot;&quot;} }&lt;/li&gt;&lt;li&gt;status&lt;/li&gt;&lt;/ul&gt;&lt;/div&gt;" style="whiteSpace=wrap;html=1;aspect=fixed;" vertex="1" parent="1">
          <mxGeometry x="390" y="570" width="205.5" height="205.5" as="geometry" />
        </mxCell>
        <mxCell id="WEFvCsSaVA6V6na2K4AB-10" value="" style="edgeStyle=none;orthogonalLoop=1;jettySize=auto;html=1;rounded=0;" edge="1" parent="1">
          <mxGeometry width="100" relative="1" as="geometry">
            <mxPoint x="660" y="660" as="sourcePoint" />
            <mxPoint x="740" y="500" as="targetPoint" />
            <Array as="points">
              <mxPoint x="600" y="680" />
            </Array>
          </mxGeometry>
        </mxCell>
        <mxCell id="WEFvCsSaVA6V6na2K4AB-14" value="&lt;div&gt;Credit&lt;/div&gt;&lt;div&gt;&lt;ul&gt;&lt;li&gt;income&lt;/li&gt;&lt;li&gt;expence&lt;/li&gt;&lt;li&gt;loan&lt;/li&gt;&lt;li&gt;loan limit&lt;/li&gt;&lt;li&gt;farm id&lt;/li&gt;&lt;/ul&gt;&lt;/div&gt;" style="whiteSpace=wrap;html=1;aspect=fixed;" vertex="1" parent="1">
          <mxGeometry x="10" y="640" width="239.5" height="239.5" as="geometry" />
        </mxCell>
        <mxCell id="WEFvCsSaVA6V6na2K4AB-18" style="edgeStyle=orthogonalEdgeStyle;rounded=0;orthogonalLoop=1;jettySize=auto;html=1;exitX=0;exitY=0.5;exitDx=0;exitDy=0;entryX=0.995;entryY=0.305;entryDx=0;entryDy=0;entryPerimeter=0;" edge="1" parent="1" source="WEFvCsSaVA6V6na2K4AB-15" target="WEFvCsSaVA6V6na2K4AB-2">
          <mxGeometry relative="1" as="geometry" />
        </mxCell>
        <mxCell id="WEFvCsSaVA6V6na2K4AB-31" style="edgeStyle=orthogonalEdgeStyle;rounded=0;orthogonalLoop=1;jettySize=auto;html=1;" edge="1" parent="1" source="WEFvCsSaVA6V6na2K4AB-15">
          <mxGeometry relative="1" as="geometry">
            <mxPoint x="615" y="-140" as="targetPoint" />
          </mxGeometry>
        </mxCell>
        <mxCell id="WEFvCsSaVA6V6na2K4AB-34" style="edgeStyle=orthogonalEdgeStyle;rounded=0;orthogonalLoop=1;jettySize=auto;html=1;" edge="1" parent="1" source="WEFvCsSaVA6V6na2K4AB-15" target="WEFvCsSaVA6V6na2K4AB-35">
          <mxGeometry relative="1" as="geometry">
            <mxPoint x="500" y="-130" as="targetPoint" />
          </mxGeometry>
        </mxCell>
        <mxCell id="WEFvCsSaVA6V6na2K4AB-15" value="&lt;div&gt;user&lt;/div&gt;&lt;div&gt;&lt;ul&gt;&lt;li&gt;username&lt;/li&gt;&lt;li&gt;email&lt;/li&gt;&lt;li&gt;phone&lt;/li&gt;&lt;li&gt;password&lt;/li&gt;&lt;li&gt;usertype&lt;br&gt;&lt;/li&gt;&lt;li&gt;isActive&lt;/li&gt;&lt;li&gt;isVerified&lt;/li&gt;&lt;li&gt;isDeleted&lt;br&gt;&lt;/li&gt;&lt;/ul&gt;&lt;/div&gt;" style="whiteSpace=wrap;html=1;aspect=fixed;" vertex="1" parent="1">
          <mxGeometry x="520" y="-10" width="190" height="190" as="geometry" />
        </mxCell>
        <mxCell id="WEFvCsSaVA6V6na2K4AB-23" style="edgeStyle=orthogonalEdgeStyle;rounded=0;orthogonalLoop=1;jettySize=auto;html=1;" edge="1" parent="1" source="WEFvCsSaVA6V6na2K4AB-22" target="WEFvCsSaVA6V6na2K4AB-24">
          <mxGeometry relative="1" as="geometry">
            <mxPoint x="150" y="-200" as="targetPoint" />
          </mxGeometry>
        </mxCell>
        <mxCell id="WEFvCsSaVA6V6na2K4AB-29" style="edgeStyle=orthogonalEdgeStyle;rounded=0;orthogonalLoop=1;jettySize=auto;html=1;exitX=0;exitY=0.5;exitDx=0;exitDy=0;" edge="1" parent="1" source="WEFvCsSaVA6V6na2K4AB-22" target="WEFvCsSaVA6V6na2K4AB-30">
          <mxGeometry relative="1" as="geometry">
            <mxPoint x="-140" y="50" as="targetPoint" />
          </mxGeometry>
        </mxCell>
        <mxCell id="WEFvCsSaVA6V6na2K4AB-22" value="&lt;div align=&quot;left&quot;&gt;orders&lt;/div&gt;&lt;div&gt;&lt;ul&gt;&lt;li&gt;&lt;div align=&quot;left&quot;&gt;order id&lt;/div&gt;&lt;/li&gt;&lt;li&gt;&lt;div align=&quot;left&quot;&gt;tracking number&lt;/div&gt;&lt;/li&gt;&lt;li&gt;&lt;div align=&quot;left&quot;&gt;farm id&lt;/div&gt;&lt;/li&gt;&lt;li&gt;&lt;div align=&quot;left&quot;&gt;paid amount&lt;/div&gt;&lt;/li&gt;&lt;li&gt;&lt;div align=&quot;left&quot;&gt;payment method &lt;br&gt;&lt;/div&gt;&lt;/li&gt;&lt;li&gt;&lt;div align=&quot;left&quot;&gt;status&lt;/div&gt;&lt;/li&gt;&lt;li&gt;address&lt;/li&gt;&lt;li&gt;comment&lt;/li&gt;&lt;li&gt;payment status&lt;/li&gt;&lt;li&gt;items&lt;br&gt;&lt;/li&gt;&lt;/ul&gt;&lt;/div&gt;" style="whiteSpace=wrap;html=1;aspect=fixed;" vertex="1" parent="1">
          <mxGeometry x="40" y="-60" width="220" height="220" as="geometry" />
        </mxCell>
        <mxCell id="WEFvCsSaVA6V6na2K4AB-24" value="&lt;div&gt;Order tracking&lt;/div&gt;&lt;div&gt;&lt;ul&gt;&lt;li&gt;stage&lt;/li&gt;&lt;li&gt;time&lt;/li&gt;&lt;li&gt;orderid&lt;/li&gt;&lt;li&gt;status&lt;/li&gt;&lt;li&gt;method of delivary&lt;/li&gt;&lt;li&gt;contact person&lt;/li&gt;&lt;/ul&gt;&lt;/div&gt;" style="whiteSpace=wrap;html=1;aspect=fixed;align=left;" vertex="1" parent="1">
          <mxGeometry x="69.5" y="-350" width="180" height="180" as="geometry" />
        </mxCell>
        <mxCell id="WEFvCsSaVA6V6na2K4AB-26" value="&lt;div&gt;produce&lt;/div&gt;&lt;div&gt;&lt;ul&gt;&lt;li&gt;type&lt;/li&gt;&lt;li&gt;farm id&lt;/li&gt;&lt;li&gt;quality &lt;br&gt;&lt;/li&gt;&lt;li&gt;quantity&lt;/li&gt;&lt;/ul&gt;&lt;/div&gt;" style="shape=cylinder3;whiteSpace=wrap;html=1;boundedLbl=1;backgroundOutline=1;size=15;" vertex="1" parent="1">
          <mxGeometry x="-260" y="395" width="200" height="195" as="geometry" />
        </mxCell>
        <mxCell id="WEFvCsSaVA6V6na2K4AB-36" style="edgeStyle=orthogonalEdgeStyle;rounded=0;orthogonalLoop=1;jettySize=auto;html=1;" edge="1" parent="1" source="WEFvCsSaVA6V6na2K4AB-30" target="WEFvCsSaVA6V6na2K4AB-37">
          <mxGeometry relative="1" as="geometry">
            <mxPoint x="-215" y="-280" as="targetPoint" />
          </mxGeometry>
        </mxCell>
        <mxCell id="WEFvCsSaVA6V6na2K4AB-30" value="&lt;div&gt;payments&lt;/div&gt;&lt;div&gt;userid&lt;/div&gt;&lt;div&gt;order&lt;/div&gt;&lt;div&gt;status&lt;/div&gt;&lt;div&gt;payment type&lt;/div&gt;&lt;div&gt;amount &lt;br&gt;&lt;/div&gt;&lt;div&gt;date&lt;/div&gt;&lt;div&gt;transaction code &lt;br&gt;&lt;/div&gt;&lt;div&gt;&lt;br&gt;&lt;/div&gt;" style="whiteSpace=wrap;html=1;aspect=fixed;" vertex="1" parent="1">
          <mxGeometry x="-330" y="-140" width="230" height="230" as="geometry" />
        </mxCell>
        <mxCell id="WEFvCsSaVA6V6na2K4AB-33" value="&lt;div&gt;Roles&lt;/div&gt;&lt;div&gt;if user is farmerf&lt;br&gt;&lt;/div&gt;" style="rhombus;whiteSpace=wrap;html=1;" vertex="1" parent="1">
          <mxGeometry x="340" y="7.5" width="150" height="155" as="geometry" />
        </mxCell>
        <mxCell id="WEFvCsSaVA6V6na2K4AB-35" value="&lt;div&gt;user roles&lt;/div&gt;&lt;div&gt;&lt;ul&gt;&lt;li&gt;userid&lt;/li&gt;&lt;li&gt;role&lt;/li&gt;&lt;li&gt;previlages&lt;/li&gt;&lt;/ul&gt;&lt;/div&gt;" style="rounded=1;whiteSpace=wrap;html=1;" vertex="1" parent="1">
          <mxGeometry x="270" y="-160" width="250" height="140" as="geometry" />
        </mxCell>
        <mxCell id="WEFvCsSaVA6V6na2K4AB-37" value="payment message call back storage" style="ellipse;whiteSpace=wrap;html=1;" vertex="1" parent="1">
          <mxGeometry x="-275" y="-320" width="120" height="80" as="geometry" />
        </mxCell>
        <mxCell id="WEFvCsSaVA6V6na2K4AB-38" value="Escrow" style="shape=hexagon;perimeter=hexagonPerimeter2;whiteSpace=wrap;html=1;fixedSize=1;" vertex="1" parent="1">
          <mxGeometry x="-90" y="7.5" width="120" height="80" as="geometry" />
        </mxCell>
        <mxCell id="WEFvCsSaVA6V6na2K4AB-42" style="edgeStyle=orthogonalEdgeStyle;rounded=0;orthogonalLoop=1;jettySize=auto;html=1;" edge="1" parent="1">
          <mxGeometry relative="1" as="geometry">
            <mxPoint x="615" y="-230" as="targetPoint" />
            <mxPoint x="600" y="-410" as="sourcePoint" />
          </mxGeometry>
        </mxCell>
        <mxCell id="WEFvCsSaVA6V6na2K4AB-41" value="if user is off taker" style="rhombus;whiteSpace=wrap;html=1;" vertex="1" parent="1">
          <mxGeometry x="530" y="-320" width="170" height="180" as="geometry" />
        </mxCell>
        <mxCell id="WEFvCsSaVA6V6na2K4AB-43" value="&lt;div&gt;orders&lt;/div&gt;&lt;div&gt;payment&lt;/div&gt;&lt;div&gt;&lt;br&gt;&lt;/div&gt;" style="whiteSpace=wrap;html=1;aspect=fixed;" vertex="1" parent="1">
          <mxGeometry x="500" y="-470" width="100" height="100" as="geometry" />
        </mxCell>
      </root>
    </mxGraphModel>
  </diagram>
</mxfile>
